<?xml version="1.0" encoding="iso-8859-1"?>
<!-- Uploaded to: SVG Repo, www.svgrepo.com, Generator: SVG Repo Mixer Tools -->
<svg version="1.1" id="Layer_1" xmlns="http://www.w3.org/2000/svg" xmlns:xlink="http://www.w3.org/1999/xlink" 
	 viewBox="0 0 512 512" xml:space="preserve">
<path style="fill:#B1C6E4;" d="M489.739,512H22.261c-9.223,0-16.696-7.479-16.696-16.696V16.696C5.565,7.479,13.038,0,22.261,0
	h467.478c9.217,0,16.696,7.479,16.696,16.696v478.609C506.435,504.521,498.956,512,489.739,512z"/>
<path style="fill:#9DB0CA;" d="M489.739,0H256v512h233.739c9.217,0,16.696-7.479,16.696-16.696V16.696
	C506.435,7.479,498.956,0,489.739,0z"/>
<path style="fill:#DBE9FD;" d="M422.957,445.217H89.043c-9.223,0-16.696-7.479-16.696-16.696V83.478
	c0-9.217,7.473-16.696,16.696-16.696h333.913c9.223,0,16.696,7.479,16.696,16.696v345.043
	C439.652,437.739,432.179,445.217,422.957,445.217z"/>
<path style="fill:#C5DCFD;" d="M422.957,66.783H256v378.435h166.957c9.223,0,16.696-7.479,16.696-16.696V83.478
	C439.652,74.261,432.179,66.783,422.957,66.783z"/>
<path style="fill:#FF6243;" d="M289.391,372.87h-66.783c-9.223,0-16.696-7.479-16.696-16.696v-50.087h-50.087
	c-9.223,0-16.696-7.479-16.696-16.696v-66.783c0-9.217,7.473-16.696,16.696-16.696h50.087v-50.087
	c0-9.217,7.473-16.696,16.696-16.696h66.783c9.223,0,16.696,7.479,16.696,16.696v50.087h50.087c9.223,0,16.696,7.479,16.696,16.696
	v66.783c0,9.217-7.473,16.696-16.696,16.696h-50.087v50.087C306.087,365.391,298.614,372.87,289.391,372.87z"/>
<path style="fill:#FF3501;" d="M356.174,205.913h-50.087v-50.087c0-9.217-7.473-16.696-16.696-16.696H256V372.87h33.391
	c9.223,0,16.696-7.479,16.696-16.696v-50.087h50.087c9.223,0,16.696-7.479,16.696-16.696v-66.783
	C372.87,213.392,365.397,205.913,356.174,205.913z"/>
<g>
	<rect x="5.565" y="100.174" style="fill:#8A9096;" width="100.174" height="100.174"/>
	<rect x="5.565" y="311.652" style="fill:#8A9096;" width="100.174" height="100.174"/>
</g>
</svg>